<svg xmlns="http://www.w3.org/2000/svg" viewBox="0 0 100 100">
  <circle cx="50" cy="50" r="50" fill="#6B4A9B"/>
  <g fill="#F0B429">
    <ellipse cx="50" cy="21" rx="5" ry="13" transform="rotate(0 50 50)"/>
    <ellipse cx="50" cy="21" rx="5" ry="13" transform="rotate(20 50 50)"/>
    <ellipse cx="50" cy="21" rx="5" ry="13" transform="rotate(40 50 50)"/>
    <ellipse cx="50" cy="21" rx="5" ry="13" transform="rotate(60 50 50)"/>
    <ellipse cx="50" cy="21" rx="5" ry="13" transform="rotate(80 50 50)"/>
    <ellipse cx="50" cy="21" rx="5" ry="13" transform="rotate(100 50 50)"/>
    <ellipse cx="50" cy="21" rx="5" ry="13" transform="rotate(120 50 50)"/>
    <ellipse cx="50" cy="21" rx="5" ry="13" transform="rotate(140 50 50)"/>
    <ellipse cx="50" cy="21" rx="5" ry="13" transform="rotate(160 50 50)"/>
    <ellipse cx="50" cy="21" rx="5" ry="13" transform="rotate(180 50 50)"/>
    <ellipse cx="50" cy="21" rx="5" ry="13" transform="rotate(200 50 50)"/>
    <ellipse cx="50" cy="21" rx="5" ry="13" transform="rotate(220 50 50)"/>
    <ellipse cx="50" cy="21" rx="5" ry="13" transform="rotate(240 50 50)"/>
    <ellipse cx="50" cy="21" rx="5" ry="13" transform="rotate(260 50 50)"/>
    <ellipse cx="50" cy="21" rx="5" ry="13" transform="rotate(280 50 50)"/>
    <ellipse cx="50" cy="21" rx="5" ry="13" transform="rotate(300 50 50)"/>
    <ellipse cx="50" cy="21" rx="5" ry="13" transform="rotate(320 50 50)"/>
    <ellipse cx="50" cy="21" rx="5" ry="13" transform="rotate(340 50 50)"/>
  </g>
  <circle cx="50" cy="50" r="10" fill="#6B4A9B"/>
</svg>
